<svg xmlns="http://www.w3.org/2000/svg" viewBox="0 0 400 560" width="100mm" height="140mm" font-family="Georgia, 'Times New Roman', serif">
  <!-- parchment + cut frame -->
  <rect x="0" y="0" width="400" height="560" rx="16" fill="#f6eccf"/>
  <rect x="7" y="7" width="386" height="546" rx="12" fill="none" stroke="#c2a76a" stroke-width="2" stroke-dasharray="7 6"/>

  <!-- header band -->
  <rect x="20" y="14" width="360" height="56" rx="10" fill="#1f5d3a"/>
  <text x="200" y="38" text-anchor="middle" fill="#bdeccb" font-size="13" letter-spacing="3">GRÜNES SCHLOSS</text>
  <text x="200" y="59" text-anchor="middle" fill="#fdf2d6" font-size="18" font-weight="700">GEHEIM-ALPHABET</text>
  <text x="200" y="90" text-anchor="middle" fill="#7a6a4a" font-size="12" letter-spacing="1">Symbol → Buchstabe · von A bis Z</text>

  <!-- chart: 2 columns A–M / N–Z -->
  <g>
    <!-- LEFT COLUMN A–M -->
    <rect x="20" y="104" width="176" height="28" rx="8" fill="#fffaf0" stroke="#c2a76a" stroke-width="1.2"/>
    <text x="52" y="124" text-anchor="middle" font-size="17">🏴‍☠️</text>
    <text x="98" y="123" text-anchor="middle" fill="#7a6a4a" font-size="13">→</text>
    <text x="150" y="123" text-anchor="middle" fill="#1f5d3a" font-size="17" font-weight="700">A</text>

    <rect x="20" y="137" width="176" height="28" rx="8" fill="#fffaf0" stroke="#c2a76a" stroke-width="1.2"/>
    <text x="52" y="157" text-anchor="middle" font-size="17">🍾</text>
    <text x="98" y="156" text-anchor="middle" fill="#7a6a4a" font-size="13">→</text>
    <text x="150" y="156" text-anchor="middle" fill="#1f5d3a" font-size="17" font-weight="700">B</text>

    <rect x="20" y="170" width="176" height="28" rx="8" fill="#fffaf0" stroke="#c2a76a" stroke-width="1.2"/>
    <text x="52" y="190" text-anchor="middle" font-size="17">👑</text>
    <text x="98" y="189" text-anchor="middle" fill="#7a6a4a" font-size="13">→</text>
    <text x="150" y="189" text-anchor="middle" fill="#1f5d3a" font-size="17" font-weight="700">C</text>

    <rect x="20" y="203" width="176" height="28" rx="8" fill="#fffaf0" stroke="#c2a76a" stroke-width="1.2"/>
    <text x="52" y="223" text-anchor="middle" font-size="17">🦴</text>
    <text x="98" y="222" text-anchor="middle" fill="#7a6a4a" font-size="13">→</text>
    <text x="150" y="222" text-anchor="middle" fill="#1f5d3a" font-size="17" font-weight="700">D</text>

    <rect x="20" y="236" width="176" height="28" rx="8" fill="#fffaf0" stroke="#c2a76a" stroke-width="1.2"/>
    <text x="52" y="256" text-anchor="middle" font-size="17">⚓</text>
    <text x="98" y="255" text-anchor="middle" fill="#7a6a4a" font-size="13">→</text>
    <text x="150" y="255" text-anchor="middle" fill="#1f5d3a" font-size="17" font-weight="700">E</text>

    <rect x="20" y="269" width="176" height="28" rx="8" fill="#fffaf0" stroke="#c2a76a" stroke-width="1.2"/>
    <text x="52" y="289" text-anchor="middle" font-size="17">🐠</text>
    <text x="98" y="288" text-anchor="middle" fill="#7a6a4a" font-size="13">→</text>
    <text x="150" y="288" text-anchor="middle" fill="#1f5d3a" font-size="17" font-weight="700">F</text>

    <rect x="20" y="302" width="176" height="28" rx="8" fill="#fffaf0" stroke="#c2a76a" stroke-width="1.2"/>
    <text x="52" y="322" text-anchor="middle" font-size="17">💰</text>
    <text x="98" y="321" text-anchor="middle" fill="#7a6a4a" font-size="13">→</text>
    <text x="150" y="321" text-anchor="middle" fill="#1f5d3a" font-size="17" font-weight="700">G</text>

    <rect x="20" y="335" width="176" height="28" rx="8" fill="#fffaf0" stroke="#c2a76a" stroke-width="1.2"/>
    <text x="52" y="355" text-anchor="middle" font-size="17">🪝</text>
    <text x="98" y="354" text-anchor="middle" fill="#7a6a4a" font-size="13">→</text>
    <text x="150" y="354" text-anchor="middle" fill="#1f5d3a" font-size="17" font-weight="700">H</text>

    <rect x="20" y="368" width="176" height="28" rx="8" fill="#fffaf0" stroke="#c2a76a" stroke-width="1.2"/>
    <text x="52" y="388" text-anchor="middle" font-size="17">🐚</text>
    <text x="98" y="387" text-anchor="middle" fill="#7a6a4a" font-size="13">→</text>
    <text x="150" y="387" text-anchor="middle" fill="#1f5d3a" font-size="17" font-weight="700">I</text>

    <rect x="20" y="401" width="176" height="28" rx="8" fill="#fffaf0" stroke="#c2a76a" stroke-width="1.2"/>
    <text x="52" y="421" text-anchor="middle" font-size="17">🪙</text>
    <text x="98" y="420" text-anchor="middle" fill="#7a6a4a" font-size="13">→</text>
    <text x="150" y="420" text-anchor="middle" fill="#1f5d3a" font-size="17" font-weight="700">J</text>

    <rect x="20" y="434" width="176" height="28" rx="8" fill="#fffaf0" stroke="#c2a76a" stroke-width="1.2"/>
    <text x="52" y="454" text-anchor="middle" font-size="17">🗝️</text>
    <text x="98" y="453" text-anchor="middle" fill="#7a6a4a" font-size="13">→</text>
    <text x="150" y="453" text-anchor="middle" fill="#1f5d3a" font-size="17" font-weight="700">K</text>

    <rect x="20" y="467" width="176" height="28" rx="8" fill="#fffaf0" stroke="#c2a76a" stroke-width="1.2"/>
    <text x="52" y="487" text-anchor="middle" font-size="17">🦑</text>
    <text x="98" y="486" text-anchor="middle" fill="#7a6a4a" font-size="13">→</text>
    <text x="150" y="486" text-anchor="middle" fill="#1f5d3a" font-size="17" font-weight="700">L</text>

    <rect x="20" y="500" width="176" height="28" rx="8" fill="#fffaf0" stroke="#c2a76a" stroke-width="1.2"/>
    <text x="52" y="520" text-anchor="middle" font-size="17">🗺️</text>
    <text x="98" y="519" text-anchor="middle" fill="#7a6a4a" font-size="13">→</text>
    <text x="150" y="519" text-anchor="middle" fill="#1f5d3a" font-size="17" font-weight="700">M</text>

    <!-- RIGHT COLUMN N–Z -->
    <rect x="204" y="104" width="176" height="28" rx="8" fill="#fffaf0" stroke="#c2a76a" stroke-width="1.2"/>
    <text x="236" y="124" text-anchor="middle" font-size="17">☠️</text>
    <text x="282" y="123" text-anchor="middle" fill="#7a6a4a" font-size="13">→</text>
    <text x="334" y="123" text-anchor="middle" fill="#1f5d3a" font-size="17" font-weight="700">N</text>

    <rect x="204" y="137" width="176" height="28" rx="8" fill="#fffaf0" stroke="#c2a76a" stroke-width="1.2"/>
    <text x="236" y="157" text-anchor="middle" font-size="17">🌴</text>
    <text x="282" y="156" text-anchor="middle" fill="#7a6a4a" font-size="13">→</text>
    <text x="334" y="156" text-anchor="middle" fill="#1f5d3a" font-size="17" font-weight="700">O</text>

    <rect x="204" y="170" width="176" height="28" rx="8" fill="#fffaf0" stroke="#c2a76a" stroke-width="1.2"/>
    <text x="236" y="190" text-anchor="middle" font-size="17">🦀</text>
    <text x="282" y="189" text-anchor="middle" fill="#7a6a4a" font-size="13">→</text>
    <text x="334" y="189" text-anchor="middle" fill="#1f5d3a" font-size="17" font-weight="700">P</text>

    <rect x="204" y="203" width="176" height="28" rx="8" fill="#fffaf0" stroke="#c2a76a" stroke-width="1.2"/>
    <text x="236" y="223" text-anchor="middle" font-size="17">🐙</text>
    <text x="282" y="222" text-anchor="middle" fill="#7a6a4a" font-size="13">→</text>
    <text x="334" y="222" text-anchor="middle" fill="#1f5d3a" font-size="17" font-weight="700">Q</text>

    <rect x="204" y="236" width="176" height="28" rx="8" fill="#fffaf0" stroke="#c2a76a" stroke-width="1.2"/>
    <text x="236" y="256" text-anchor="middle" font-size="17">🦜</text>
    <text x="282" y="255" text-anchor="middle" fill="#7a6a4a" font-size="13">→</text>
    <text x="334" y="255" text-anchor="middle" fill="#1f5d3a" font-size="17" font-weight="700">R</text>

    <rect x="204" y="269" width="176" height="28" rx="8" fill="#fffaf0" stroke="#c2a76a" stroke-width="1.2"/>
    <text x="236" y="289" text-anchor="middle" font-size="17">🗡️</text>
    <text x="282" y="288" text-anchor="middle" fill="#7a6a4a" font-size="13">→</text>
    <text x="334" y="288" text-anchor="middle" fill="#1f5d3a" font-size="17" font-weight="700">S</text>

    <rect x="204" y="302" width="176" height="28" rx="8" fill="#fffaf0" stroke="#c2a76a" stroke-width="1.2"/>
    <text x="236" y="322" text-anchor="middle" font-size="17">🔱</text>
    <text x="282" y="321" text-anchor="middle" fill="#7a6a4a" font-size="13">→</text>
    <text x="334" y="321" text-anchor="middle" fill="#1f5d3a" font-size="17" font-weight="700">T</text>

    <rect x="204" y="335" width="176" height="28" rx="8" fill="#fffaf0" stroke="#c2a76a" stroke-width="1.2"/>
    <text x="236" y="355" text-anchor="middle" font-size="17">⛏️</text>
    <text x="282" y="354" text-anchor="middle" fill="#7a6a4a" font-size="13">→</text>
    <text x="334" y="354" text-anchor="middle" fill="#1f5d3a" font-size="17" font-weight="700">U</text>

    <rect x="204" y="368" width="176" height="28" rx="8" fill="#fffaf0" stroke="#c2a76a" stroke-width="1.2"/>
    <text x="236" y="388" text-anchor="middle" font-size="17">⛵</text>
    <text x="282" y="387" text-anchor="middle" fill="#7a6a4a" font-size="13">→</text>
    <text x="334" y="387" text-anchor="middle" fill="#1f5d3a" font-size="17" font-weight="700">V</text>

    <rect x="204" y="401" width="176" height="28" rx="8" fill="#fffaf0" stroke="#c2a76a" stroke-width="1.2"/>
    <text x="236" y="421" text-anchor="middle" font-size="17">🌊</text>
    <text x="282" y="420" text-anchor="middle" fill="#7a6a4a" font-size="13">→</text>
    <text x="334" y="420" text-anchor="middle" fill="#1f5d3a" font-size="17" font-weight="700">W</text>

    <rect x="204" y="434" width="176" height="28" rx="8" fill="#fffaf0" stroke="#c2a76a" stroke-width="1.2"/>
    <text x="236" y="454" text-anchor="middle" font-size="17">❌</text>
    <text x="282" y="453" text-anchor="middle" fill="#7a6a4a" font-size="13">→</text>
    <text x="334" y="453" text-anchor="middle" fill="#1f5d3a" font-size="17" font-weight="700">X</text>

    <rect x="204" y="467" width="176" height="28" rx="8" fill="#fffaf0" stroke="#c2a76a" stroke-width="1.2"/>
    <text x="236" y="487" text-anchor="middle" font-size="17">⚔️</text>
    <text x="282" y="486" text-anchor="middle" fill="#7a6a4a" font-size="13">→</text>
    <text x="334" y="486" text-anchor="middle" fill="#1f5d3a" font-size="17" font-weight="700">Y</text>

    <rect x="204" y="500" width="176" height="28" rx="8" fill="#fffaf0" stroke="#c2a76a" stroke-width="1.2"/>
    <text x="236" y="520" text-anchor="middle" font-size="17">🧭</text>
    <text x="282" y="519" text-anchor="middle" fill="#7a6a4a" font-size="13">→</text>
    <text x="334" y="519" text-anchor="middle" fill="#1f5d3a" font-size="17" font-weight="700">Z</text>
  </g>

  <!-- footer -->
  <text x="200" y="546" text-anchor="middle" fill="#7a6a4a" font-size="12">C8 · Geheim-Alphabet · für alle 5 Karten</text>
</svg>
