<svg xmlns="http://www.w3.org/2000/svg" viewBox="0 0 400 300" width="100mm" height="75mm" font-family="Georgia, 'Times New Roman', serif">
  <!-- parchment + cut frame -->
  <rect x="0" y="0" width="400" height="300" rx="16" fill="#f6eccf"/>
  <rect x="7" y="7" width="386" height="286" rx="12" fill="none" stroke="#c2a76a" stroke-width="2" stroke-dasharray="7 6"/>

  <!-- header band -->
  <rect x="20" y="14" width="360" height="46" rx="10" fill="#1f5d3a"/>
  <text x="200" y="36" text-anchor="middle" fill="#bdeccb" font-size="13" letter-spacing="2">GRÜNES SCHLOSS</text>
  <text x="200" y="53" text-anchor="middle" fill="#fdf2d6" font-size="14" font-style="italic">So bekommt ihr eure Zahl</text>

  <!-- title -->
  <text x="200" y="82" text-anchor="middle" fill="#1f5d3a" font-size="22" font-weight="700">Puzzle</text>

  <!-- steps -->
  <g fill="#2a2118" font-size="12">
    <text x="34" y="104"><tspan fill="#1f5d3a" font-weight="700">1.</tspan>  Jeder nimmt eine <tspan font-weight="700">Karte</tspan> voller Puzzleteile.</text>
    <text x="34" y="124"><tspan fill="#1f5d3a" font-weight="700">2.</tspan>  Setzt sie zusammen — eine <tspan font-weight="700">Geheimzahl</tspan> erscheint. Aufschreiben!</text>
    <text x="34" y="144"><tspan fill="#1f5d3a" font-weight="700">3.</tspan>  Sammelt alle <tspan font-weight="700">5 Geheimzahlen</tspan> ein.</text>
    <text x="34" y="164"><tspan fill="#1f5d3a" font-weight="700">4.</tspan>  Zählt: Wie viele sind <tspan font-weight="700">GRÖSSER als 50</tspan>?</text>
    <text x="34" y="184"><tspan fill="#1f5d3a" font-weight="700">5.</tspan>  Anzahl in der <tspan font-weight="700">Schatz-Tabelle</tspan> suchen — die Zahl daneben ist eure Zahl!</text>
  </g>

  <!-- treasure mapping table: Anzahl -> Zahl -->
  <text x="200" y="206" text-anchor="middle" fill="#1f5d3a" font-size="13" font-weight="700" letter-spacing="1">SCHATZ-TABELLE</text>
  <g font-size="12" fill="#7a6a4a" text-anchor="end">
    <text x="40" y="232">Anzahl</text>
    <text x="40" y="260">Zahl</text>
  </g>
  <g text-anchor="middle">
    <!-- column 1: 1 -> 4 -->
    <rect x="52" y="218" width="60" height="50" rx="8" fill="#fdf6e3" stroke="#c2a76a" stroke-width="2"/>
    <line x1="52" y1="242" x2="112" y2="242" stroke="#c2a76a" stroke-width="1"/>
    <text x="82" y="236" fill="#2a2118" font-size="16" font-weight="700">1</text>
    <text x="82" y="261" fill="#1f5d3a" font-size="16" font-weight="700">4</text>
    <!-- column 2: 2 -> 9 -->
    <rect x="118" y="218" width="60" height="50" rx="8" fill="#fdf6e3" stroke="#c2a76a" stroke-width="2"/>
    <line x1="118" y1="242" x2="178" y2="242" stroke="#c2a76a" stroke-width="1"/>
    <text x="148" y="236" fill="#2a2118" font-size="16" font-weight="700">2</text>
    <text x="148" y="261" fill="#1f5d3a" font-size="16" font-weight="700">9</text>
    <!-- column 3: 3 -> 6  (the answer) -->
    <rect x="184" y="218" width="60" height="50" rx="8" fill="#fdf6e3" stroke="#c2a76a" stroke-width="2"/>
    <line x1="184" y1="242" x2="244" y2="242" stroke="#c2a76a" stroke-width="1"/>
    <text x="214" y="236" fill="#2a2118" font-size="16" font-weight="700">3</text>
    <text x="214" y="261" fill="#1f5d3a" font-size="16" font-weight="700">6</text>
    <!-- column 4: 4 -> 2 -->
    <rect x="250" y="218" width="60" height="50" rx="8" fill="#fdf6e3" stroke="#c2a76a" stroke-width="2"/>
    <line x1="250" y1="242" x2="310" y2="242" stroke="#c2a76a" stroke-width="1"/>
    <text x="280" y="236" fill="#2a2118" font-size="16" font-weight="700">4</text>
    <text x="280" y="261" fill="#1f5d3a" font-size="16" font-weight="700">2</text>
    <!-- column 5: 5 -> 8 -->
    <rect x="316" y="218" width="60" height="50" rx="8" fill="#fdf6e3" stroke="#c2a76a" stroke-width="2"/>
    <line x1="316" y1="242" x2="376" y2="242" stroke="#c2a76a" stroke-width="1"/>
    <text x="346" y="236" fill="#2a2118" font-size="16" font-weight="700">5</text>
    <text x="346" y="261" fill="#1f5d3a" font-size="16" font-weight="700">8</text>
  </g>

  <!-- footer -->
  <text x="200" y="285" text-anchor="middle" fill="#7a6a4a" font-size="12">C8 · 5 Karten</text>
</svg>
