<svg xmlns="http://www.w3.org/2000/svg" viewBox="0 0 420 594" width="210mm" height="297mm" font-family="Georgia, 'Times New Roman', serif">
  <!-- parchment + cut frame -->
  <rect x="0" y="0" width="420" height="594" rx="22" fill="#f6eccf"/>
  <rect x="12" y="12" width="396" height="570" rx="16" fill="none" stroke="#c2a76a" stroke-width="2" stroke-dasharray="9 7"/>
  <!-- header band -->
  <rect x="32" y="28" width="356" height="70" rx="14" fill="#1f5d3a"/>
  <text x="210" y="60" text-anchor="middle" fill="#bdeccb" font-size="16" letter-spacing="3">GRÜNES SCHLOSS</text>
  <text x="210" y="84" text-anchor="middle" fill="#fdf2d6" font-size="18" font-style="italic">So bekommt ihr eure Zahl</text>

  <!-- title -->
  <text x="210" y="146" text-anchor="middle" fill="#1f5d3a" font-size="34" font-weight="700">Geheimcode</text>

  <!-- steps -->
  <g fill="#2a2118" font-size="15">
    <text x="40" y="194"><tspan fill="#1f5d3a" font-weight="700">1.</tspan>  Jeder nimmt sich <tspan font-weight="700">eine Karte</tspan> voller Puzzleteile.</text>
    <text x="40" y="226"><tspan fill="#1f5d3a" font-weight="700">2.</tspan>  Setzt die Teile zusammen — eine <tspan font-weight="700">Geheimzahl</tspan></text>
    <text x="58" y="246">erscheint! Schreibt sie auf.</text>
    <text x="40" y="278"><tspan fill="#1f5d3a" font-weight="700">3.</tspan>  Sammelt alle <tspan font-weight="700">5 Geheimzahlen</tspan> ein.</text>
    <text x="40" y="310"><tspan fill="#1f5d3a" font-weight="700">4.</tspan>  Zählt: Wie viele sind <tspan font-weight="700">GRÖSSER als 50</tspan>?</text>
    <text x="40" y="342"><tspan fill="#1f5d3a" font-weight="700">5.</tspan>  Anzahl in der <tspan font-weight="700">Schatz-Tabelle</tspan> suchen — die</text>
    <text x="58" y="362">Zahl daneben ist eure Zahl!</text>
  </g>

  <!-- treasure mapping table: Anzahl -> Zahl -->
  <text x="210" y="398" text-anchor="middle" fill="#1f5d3a" font-size="16" font-weight="700" letter-spacing="1">SCHATZ-TABELLE</text>
  <g font-size="13" fill="#7a6a4a" text-anchor="end">
    <text x="62" y="437">Anzahl</text>
    <text x="62" y="470">Zahl</text>
  </g>
  <g>
    <rect x="72" y="414" width="60" height="64" rx="10" fill="#fdf6e3" stroke="#c2a76a" stroke-width="2"/>
    <line x1="72" y1="446" x2="132" y2="446" stroke="#c2a76a" stroke-width="1"/>
    <text x="102" y="437" text-anchor="middle" fill="#2a2118" font-size="22" font-weight="700">1</text>
    <text x="102" y="470" text-anchor="middle" fill="#1f5d3a" font-size="22" font-weight="700">4</text>
    <rect x="138" y="414" width="60" height="64" rx="10" fill="#fdf6e3" stroke="#c2a76a" stroke-width="2"/>
    <line x1="138" y1="446" x2="198" y2="446" stroke="#c2a76a" stroke-width="1"/>
    <text x="168" y="437" text-anchor="middle" fill="#2a2118" font-size="22" font-weight="700">2</text>
    <text x="168" y="470" text-anchor="middle" fill="#1f5d3a" font-size="22" font-weight="700">9</text>
    <rect x="204" y="414" width="60" height="64" rx="10" fill="#fdf6e3" stroke="#c2a76a" stroke-width="2"/>
    <line x1="204" y1="446" x2="264" y2="446" stroke="#c2a76a" stroke-width="1"/>
    <text x="234" y="437" text-anchor="middle" fill="#2a2118" font-size="22" font-weight="700">3</text>
    <text x="234" y="470" text-anchor="middle" fill="#1f5d3a" font-size="22" font-weight="700">6</text>
    <rect x="270" y="414" width="60" height="64" rx="10" fill="#fdf6e3" stroke="#c2a76a" stroke-width="2"/>
    <line x1="270" y1="446" x2="330" y2="446" stroke="#c2a76a" stroke-width="1"/>
    <text x="300" y="437" text-anchor="middle" fill="#2a2118" font-size="22" font-weight="700">4</text>
    <text x="300" y="470" text-anchor="middle" fill="#1f5d3a" font-size="22" font-weight="700">2</text>
    <rect x="336" y="414" width="60" height="64" rx="10" fill="#fdf6e3" stroke="#c2a76a" stroke-width="2"/>
    <line x1="336" y1="446" x2="396" y2="446" stroke="#c2a76a" stroke-width="1"/>
    <text x="366" y="437" text-anchor="middle" fill="#2a2118" font-size="22" font-weight="700">5</text>
    <text x="366" y="470" text-anchor="middle" fill="#1f5d3a" font-size="22" font-weight="700">8</text>
  </g>

  <!-- footer -->
  <text x="210" y="564" text-anchor="middle" fill="#7a6a4a" font-size="16">C8 · 5 Karten</text>
</svg>
