<svg xmlns="http://www.w3.org/2000/svg" viewBox="0 0 420 594" width="210mm" height="297mm" font-family="Georgia, 'Times New Roman', serif">
  <!-- parchment + cut frame -->
  <rect x="0" y="0" width="420" height="594" rx="22" fill="#f6eccf"/>
  <rect x="12" y="12" width="396" height="570" rx="16" fill="none" stroke="#c2a76a" stroke-width="2" stroke-dasharray="9 7"/>
  <!-- header band -->
  <rect x="32" y="28" width="356" height="70" rx="14" fill="#1f5d3a"/>
  <text x="210" y="60" text-anchor="middle" fill="#bdeccb" font-size="16" letter-spacing="3">GRÜNES SCHLOSS</text>
  <text x="210" y="84" text-anchor="middle" fill="#fdf2d6" font-size="18" font-style="italic">Puzzle-Zahl</text>

  <!-- title + how-to -->
  <text x="210" y="134" text-anchor="middle" fill="#1f5d3a" font-size="34" font-weight="700">Geheimzahl 1</text>
  <text x="210" y="162" text-anchor="middle" fill="#2a2118" font-size="15">Schneidet die Teile aus ✂ und setzt die Zahl zusammen.</text>

  <!-- the puzzle: a big number, sliced into jigsaw pieces -->
  <defs><clipPath id="c8-1-clip"><rect x="44" y="184" width="332" height="326" rx="14"/></clipPath></defs>
  <rect x="44" y="184" width="332" height="326" rx="14" fill="#fdf6e3"/>
  <g clip-path="url(#c8-1-clip)">
    <text x="210" y="452" text-anchor="middle" fill="#1f5d3a" font-size="320" font-weight="700">82</text>
  </g>
    <path d="M44 249.2 L75.068 249.2 A10.432 10.432 0 0 0 95.932 249.2 L127 249.2 M127 249.2 L158.068 249.2 A10.432 10.432 0 0 0 178.932 249.2 L210 249.2 M210 249.2 L241.068 249.2 A10.432 10.432 0 0 1 261.932 249.2 L293 249.2 M293 249.2 L324.068 249.2 A10.432 10.432 0 0 0 344.932 249.2 L376 249.2 M44 314.4 L75.068 314.4 A10.432 10.432 0 0 1 95.932 314.4 L127 314.4 M127 314.4 L158.068 314.4 A10.432 10.432 0 0 1 178.932 314.4 L210 314.4 M210 314.4 L241.068 314.4 A10.432 10.432 0 0 0 261.932 314.4 L293 314.4 M293 314.4 L324.068 314.4 A10.432 10.432 0 0 0 344.932 314.4 L376 314.4 M44 379.6 L75.068 379.6 A10.432 10.432 0 0 1 95.932 379.6 L127 379.6 M127 379.6 L158.068 379.6 A10.432 10.432 0 0 0 178.932 379.6 L210 379.6 M210 379.6 L241.068 379.6 A10.432 10.432 0 0 1 261.932 379.6 L293 379.6 M293 379.6 L324.068 379.6 A10.432 10.432 0 0 0 344.932 379.6 L376 379.6 M44 444.8 L75.068 444.8 A10.432 10.432 0 0 1 95.932 444.8 L127 444.8 M127 444.8 L158.068 444.8 A10.432 10.432 0 0 0 178.932 444.8 L210 444.8 M210 444.8 L241.068 444.8 A10.432 10.432 0 0 0 261.932 444.8 L293 444.8 M293 444.8 L324.068 444.8 A10.432 10.432 0 0 1 344.932 444.8 L376 444.8 M127 184 L127 206.168 A10.432 10.432 0 0 0 127 227.03199999999998 L127 249.2 M127 249.2 L127 271.36799999999994 A10.432 10.432 0 0 1 127 292.23199999999997 L127 314.4 M127 314.4 L127 336.568 A10.432 10.432 0 0 0 127 357.432 L127 379.6 M127 379.6 L127 401.76800000000003 A10.432 10.432 0 0 0 127 422.63200000000006 L127 444.8 M127 444.8 L127 466.96799999999996 A10.432 10.432 0 0 0 127 487.832 L127 510 M210 184 L210 206.168 A10.432 10.432 0 0 1 210 227.03199999999998 L210 249.2 M210 249.2 L210 271.36799999999994 A10.432 10.432 0 0 1 210 292.23199999999997 L210 314.4 M210 314.4 L210 336.568 A10.432 10.432 0 0 0 210 357.432 L210 379.6 M210 379.6 L210 401.76800000000003 A10.432 10.432 0 0 1 210 422.63200000000006 L210 444.8 M210 444.8 L210 466.96799999999996 A10.432 10.432 0 0 1 210 487.832 L210 510 M293 184 L293 206.168 A10.432 10.432 0 0 0 293 227.03199999999998 L293 249.2 M293 249.2 L293 271.36799999999994 A10.432 10.432 0 0 0 293 292.23199999999997 L293 314.4 M293 314.4 L293 336.568 A10.432 10.432 0 0 0 293 357.432 L293 379.6 M293 379.6 L293 401.76800000000003 A10.432 10.432 0 0 1 293 422.63200000000006 L293 444.8 M293 444.8 L293 466.96799999999996 A10.432 10.432 0 0 0 293 487.832 L293 510" fill="none" stroke="#fffaf0" stroke-width="3.5" stroke-linecap="round"/>
    <path d="M44 249.2 L75.068 249.2 A10.432 10.432 0 0 0 95.932 249.2 L127 249.2 M127 249.2 L158.068 249.2 A10.432 10.432 0 0 0 178.932 249.2 L210 249.2 M210 249.2 L241.068 249.2 A10.432 10.432 0 0 1 261.932 249.2 L293 249.2 M293 249.2 L324.068 249.2 A10.432 10.432 0 0 0 344.932 249.2 L376 249.2 M44 314.4 L75.068 314.4 A10.432 10.432 0 0 1 95.932 314.4 L127 314.4 M127 314.4 L158.068 314.4 A10.432 10.432 0 0 1 178.932 314.4 L210 314.4 M210 314.4 L241.068 314.4 A10.432 10.432 0 0 0 261.932 314.4 L293 314.4 M293 314.4 L324.068 314.4 A10.432 10.432 0 0 0 344.932 314.4 L376 314.4 M44 379.6 L75.068 379.6 A10.432 10.432 0 0 1 95.932 379.6 L127 379.6 M127 379.6 L158.068 379.6 A10.432 10.432 0 0 0 178.932 379.6 L210 379.6 M210 379.6 L241.068 379.6 A10.432 10.432 0 0 1 261.932 379.6 L293 379.6 M293 379.6 L324.068 379.6 A10.432 10.432 0 0 0 344.932 379.6 L376 379.6 M44 444.8 L75.068 444.8 A10.432 10.432 0 0 1 95.932 444.8 L127 444.8 M127 444.8 L158.068 444.8 A10.432 10.432 0 0 0 178.932 444.8 L210 444.8 M210 444.8 L241.068 444.8 A10.432 10.432 0 0 0 261.932 444.8 L293 444.8 M293 444.8 L324.068 444.8 A10.432 10.432 0 0 1 344.932 444.8 L376 444.8 M127 184 L127 206.168 A10.432 10.432 0 0 0 127 227.03199999999998 L127 249.2 M127 249.2 L127 271.36799999999994 A10.432 10.432 0 0 1 127 292.23199999999997 L127 314.4 M127 314.4 L127 336.568 A10.432 10.432 0 0 0 127 357.432 L127 379.6 M127 379.6 L127 401.76800000000003 A10.432 10.432 0 0 0 127 422.63200000000006 L127 444.8 M127 444.8 L127 466.96799999999996 A10.432 10.432 0 0 0 127 487.832 L127 510 M210 184 L210 206.168 A10.432 10.432 0 0 1 210 227.03199999999998 L210 249.2 M210 249.2 L210 271.36799999999994 A10.432 10.432 0 0 1 210 292.23199999999997 L210 314.4 M210 314.4 L210 336.568 A10.432 10.432 0 0 0 210 357.432 L210 379.6 M210 379.6 L210 401.76800000000003 A10.432 10.432 0 0 1 210 422.63200000000006 L210 444.8 M210 444.8 L210 466.96799999999996 A10.432 10.432 0 0 1 210 487.832 L210 510 M293 184 L293 206.168 A10.432 10.432 0 0 0 293 227.03199999999998 L293 249.2 M293 249.2 L293 271.36799999999994 A10.432 10.432 0 0 0 293 292.23199999999997 L293 314.4 M293 314.4 L293 336.568 A10.432 10.432 0 0 0 293 357.432 L293 379.6 M293 379.6 L293 401.76800000000003 A10.432 10.432 0 0 1 293 422.63200000000006 L293 444.8 M293 444.8 L293 466.96799999999996 A10.432 10.432 0 0 0 293 487.832 L293 510" fill="none" stroke="#5a4a2a" stroke-width="1.3" stroke-dasharray="4 3" stroke-linecap="round"/>
  <rect x="44" y="184" width="332" height="326" rx="14" fill="none" stroke="#5a4a2a" stroke-width="2"/>

  <!-- footer -->
  <circle cx="36" cy="564" r="8" fill="#2e7d4f"/>
  <text x="52" y="570" fill="#7a6a4a" font-size="16">C8 · 20 Teile</text>
  <text x="384" y="570" text-anchor="end" font-size="20"><tspan fill="#e0a92e">★★★</tspan><tspan fill="#d8c9a0"></tspan></text>
</svg>
