<svg xmlns="http://www.w3.org/2000/svg" viewBox="0 0 420 594" width="210mm" height="297mm" font-family="Georgia, 'Times New Roman', serif">
  <!-- parchment + cut frame -->
  <rect x="0" y="0" width="420" height="594" rx="22" fill="#f6eccf"/>
  <rect x="12" y="12" width="396" height="570" rx="16" fill="none" stroke="#c2a76a" stroke-width="2" stroke-dasharray="9 7"/>
  <!-- header band -->
  <rect x="32" y="28" width="356" height="70" rx="14" fill="#1f5d3a"/>
  <text x="210" y="60" text-anchor="middle" fill="#bdeccb" font-size="16" letter-spacing="3">GRÜNES SCHLOSS</text>
  <text x="210" y="84" text-anchor="middle" fill="#fdf2d6" font-size="18" font-style="italic">Puzzle-Zahl</text>

  <!-- title + how-to -->
  <text x="210" y="134" text-anchor="middle" fill="#2c5fa0" font-size="34" font-weight="700">Geheimzahl 2</text>
  <text x="210" y="162" text-anchor="middle" fill="#2a2118" font-size="15">Schneidet die Teile aus ✂ und setzt die Zahl zusammen.</text>

  <!-- the puzzle: a big number, sliced along straight grid lines -->
  <defs><clipPath id="c8-2-clip"><rect x="44" y="184" width="332" height="326" rx="14"/></clipPath></defs>
  <rect x="44" y="184" width="332" height="326" rx="14" fill="#fdf6e3"/>
  <g clip-path="url(#c8-2-clip)">
    <text x="210" y="452" text-anchor="middle" fill="#2c5fa0" font-size="320" font-weight="700">35</text>
  </g>
    <path d="M44 265.5 L376 265.5 M44 347 L376 347 M44 428.5 L376 428.5 M154.66666666666669 184 L154.66666666666669 510 M265.33333333333337 184 L265.33333333333337 510" fill="none" stroke="#fffaf0" stroke-width="3.5" stroke-linecap="round"/>
    <path d="M44 265.5 L376 265.5 M44 347 L376 347 M44 428.5 L376 428.5 M154.66666666666669 184 L154.66666666666669 510 M265.33333333333337 184 L265.33333333333337 510" fill="none" stroke="#5a4a2a" stroke-width="1.3" stroke-dasharray="4 3" stroke-linecap="round"/>
  <rect x="44" y="184" width="332" height="326" rx="14" fill="none" stroke="#5a4a2a" stroke-width="2"/>

  <!-- footer -->
  <circle cx="36" cy="564" r="8" fill="#2e7d4f"/>
  <text x="52" y="570" fill="#7a6a4a" font-size="16">C8 · 12 Teile</text>
  <text x="384" y="570" text-anchor="end" font-size="20"><tspan fill="#e0a92e">★★</tspan><tspan fill="#d8c9a0">★</tspan></text>
</svg>
