<svg xmlns="http://www.w3.org/2000/svg" viewBox="0 0 420 594" width="210mm" height="297mm" font-family="Georgia, 'Times New Roman', serif">
  <!-- parchment + cut frame -->
  <rect x="0" y="0" width="420" height="594" rx="22" fill="#f6eccf"/>
  <rect x="12" y="12" width="396" height="570" rx="16" fill="none" stroke="#c2a76a" stroke-width="2" stroke-dasharray="9 7"/>
  <!-- header band -->
  <rect x="32" y="28" width="356" height="70" rx="14" fill="#1f5d3a"/>
  <text x="210" y="60" text-anchor="middle" fill="#bdeccb" font-size="16" letter-spacing="3">GRÜNES SCHLOSS</text>
  <text x="210" y="84" text-anchor="middle" fill="#fdf2d6" font-size="18" font-style="italic">Puzzle-Zahl</text>

  <!-- title + how-to -->
  <text x="210" y="134" text-anchor="middle" fill="#1f5d3a" font-size="34" font-weight="700">Geheimzahl 4</text>
  <text x="210" y="162" text-anchor="middle" fill="#2a2118" font-size="15">Schneidet die Teile aus ✂ und setzt die Zahl zusammen.</text>

  <!-- the puzzle: a big number, sliced into jigsaw pieces -->
  <defs><clipPath id="c8-4-clip"><rect x="44" y="184" width="332" height="326" rx="14"/></clipPath></defs>
  <rect x="44" y="184" width="332" height="326" rx="14" fill="#fdf6e3"/>
  <g clip-path="url(#c8-4-clip)">
    <text x="210" y="452" text-anchor="middle" fill="#1f5d3a" font-size="320" font-weight="700">19</text>
  </g>
    <path d="M44 292.6666666666667 L81.94666666666667 292.6666666666667 A17.386666666666667 17.386666666666667 0 0 1 116.72000000000001 292.6666666666667 L154.66666666666669 292.6666666666667 M154.66666666666669 292.6666666666667 L192.61333333333337 292.6666666666667 A17.386666666666667 17.386666666666667 0 0 1 227.38666666666668 292.6666666666667 L265.33333333333337 292.6666666666667 M265.33333333333337 292.6666666666667 L303.28000000000003 292.6666666666667 A17.386666666666667 17.386666666666667 0 0 0 338.05333333333334 292.6666666666667 L376 292.6666666666667 M44 401.33333333333337 L81.94666666666667 401.33333333333337 A17.386666666666667 17.386666666666667 0 0 0 116.72000000000001 401.33333333333337 L154.66666666666669 401.33333333333337 M154.66666666666669 401.33333333333337 L192.61333333333337 401.33333333333337 A17.386666666666667 17.386666666666667 0 0 0 227.38666666666668 401.33333333333337 L265.33333333333337 401.33333333333337 M265.33333333333337 401.33333333333337 L303.28000000000003 401.33333333333337 A17.386666666666667 17.386666666666667 0 0 1 338.05333333333334 401.33333333333337 L376 401.33333333333337 M154.66666666666669 184 L154.66666666666669 220.9466666666667 A17.386666666666667 17.386666666666667 0 0 0 154.66666666666669 255.72 L154.66666666666669 292.6666666666667 M154.66666666666669 292.6666666666667 L154.66666666666669 329.61333333333334 A17.386666666666667 17.386666666666667 0 0 1 154.66666666666669 364.38666666666666 L154.66666666666669 401.33333333333337 M154.66666666666669 401.33333333333337 L154.66666666666669 438.28000000000003 A17.386666666666667 17.386666666666667 0 0 1 154.66666666666669 473.05333333333334 L154.66666666666669 510 M265.33333333333337 184 L265.33333333333337 220.9466666666667 A17.386666666666667 17.386666666666667 0 0 1 265.33333333333337 255.72 L265.33333333333337 292.6666666666667 M265.33333333333337 292.6666666666667 L265.33333333333337 329.61333333333334 A17.386666666666667 17.386666666666667 0 0 1 265.33333333333337 364.38666666666666 L265.33333333333337 401.33333333333337 M265.33333333333337 401.33333333333337 L265.33333333333337 438.28000000000003 A17.386666666666667 17.386666666666667 0 0 1 265.33333333333337 473.05333333333334 L265.33333333333337 510" fill="none" stroke="#fffaf0" stroke-width="3.5" stroke-linecap="round"/>
    <path d="M44 292.6666666666667 L81.94666666666667 292.6666666666667 A17.386666666666667 17.386666666666667 0 0 1 116.72000000000001 292.6666666666667 L154.66666666666669 292.6666666666667 M154.66666666666669 292.6666666666667 L192.61333333333337 292.6666666666667 A17.386666666666667 17.386666666666667 0 0 1 227.38666666666668 292.6666666666667 L265.33333333333337 292.6666666666667 M265.33333333333337 292.6666666666667 L303.28000000000003 292.6666666666667 A17.386666666666667 17.386666666666667 0 0 0 338.05333333333334 292.6666666666667 L376 292.6666666666667 M44 401.33333333333337 L81.94666666666667 401.33333333333337 A17.386666666666667 17.386666666666667 0 0 0 116.72000000000001 401.33333333333337 L154.66666666666669 401.33333333333337 M154.66666666666669 401.33333333333337 L192.61333333333337 401.33333333333337 A17.386666666666667 17.386666666666667 0 0 0 227.38666666666668 401.33333333333337 L265.33333333333337 401.33333333333337 M265.33333333333337 401.33333333333337 L303.28000000000003 401.33333333333337 A17.386666666666667 17.386666666666667 0 0 1 338.05333333333334 401.33333333333337 L376 401.33333333333337 M154.66666666666669 184 L154.66666666666669 220.9466666666667 A17.386666666666667 17.386666666666667 0 0 0 154.66666666666669 255.72 L154.66666666666669 292.6666666666667 M154.66666666666669 292.6666666666667 L154.66666666666669 329.61333333333334 A17.386666666666667 17.386666666666667 0 0 1 154.66666666666669 364.38666666666666 L154.66666666666669 401.33333333333337 M154.66666666666669 401.33333333333337 L154.66666666666669 438.28000000000003 A17.386666666666667 17.386666666666667 0 0 1 154.66666666666669 473.05333333333334 L154.66666666666669 510 M265.33333333333337 184 L265.33333333333337 220.9466666666667 A17.386666666666667 17.386666666666667 0 0 1 265.33333333333337 255.72 L265.33333333333337 292.6666666666667 M265.33333333333337 292.6666666666667 L265.33333333333337 329.61333333333334 A17.386666666666667 17.386666666666667 0 0 1 265.33333333333337 364.38666666666666 L265.33333333333337 401.33333333333337 M265.33333333333337 401.33333333333337 L265.33333333333337 438.28000000000003 A17.386666666666667 17.386666666666667 0 0 1 265.33333333333337 473.05333333333334 L265.33333333333337 510" fill="none" stroke="#5a4a2a" stroke-width="1.3" stroke-dasharray="4 3" stroke-linecap="round"/>
  <rect x="44" y="184" width="332" height="326" rx="14" fill="none" stroke="#5a4a2a" stroke-width="2"/>

  <!-- footer -->
  <circle cx="36" cy="564" r="8" fill="#2e7d4f"/>
  <text x="52" y="570" fill="#7a6a4a" font-size="16">C8 · 9 Teile</text>
  <text x="384" y="570" text-anchor="end" font-size="20"><tspan fill="#e0a92e">★</tspan><tspan fill="#d8c9a0">★★</tspan></text>
</svg>
