<svg xmlns="http://www.w3.org/2000/svg" viewBox="0 0 760 540" width="190mm" height="135mm" font-family="Georgia, 'Times New Roman', serif">
  <!-- parchment + cut frame -->
  <rect x="0" y="0" width="760" height="540" rx="20" fill="#f6eccf"/>
  <rect x="12" y="12" width="736" height="516" rx="14" fill="none" stroke="#c2a76a" stroke-width="2" stroke-dasharray="9 7"/>

  <!-- header band -->
  <rect x="40" y="24" width="680" height="70" rx="12" fill="#1d4e89"/>
  <text x="380" y="56" text-anchor="middle" fill="#bfe0ff" font-size="17" letter-spacing="3">BLAUES SCHLOSS · WOHNZIMMER</text>
  <text x="380" y="80" text-anchor="middle" fill="#fdf2d6" font-size="19" font-style="italic">Nachbauen · Stangen zählen</text>

  <!-- title -->
  <text x="380" y="138" text-anchor="middle" fill="#1d4e89" font-size="34" font-weight="700">Geomag-Pyramide</text>

  <!-- dark-blue panel with tetrahedron (left), guidance (right) -->
  <rect x="40" y="160" width="430" height="300" rx="16" fill="#0d3b56"/>

  <!-- Tetrahedron: original coords scaled 2.4x, centered in panel
       base:  40,150 -> 140,440 ; 170,150 -> 452,440 ; 105,120 -> 296,368
       apex: 105,40 -> 296,176 -->
  <g stroke="#9fd6ff" stroke-width="3" fill="none" stroke-linecap="round">
    <!-- base edges -->
    <line x1="140" y1="440" x2="452" y2="440"/>
    <line x1="140" y1="440" x2="296" y2="368"/>
    <line x1="452" y1="440" x2="296" y2="368"/>
    <!-- side edges to apex -->
    <line x1="140" y1="440" x2="296" y2="176"/>
    <line x1="452" y1="440" x2="296" y2="176"/>
    <!-- hidden back edge: front-center base sphere to apex -->
    <line x1="296" y1="368" x2="296" y2="176" stroke-dasharray="9 7"/>
  </g>

  <!-- spheres: 3 grey base + gold apex -->
  <g stroke-width="3">
    <circle cx="140" cy="440" r="22" fill="#d9d9d9" stroke="#ffffff"/>
    <circle cx="452" cy="440" r="22" fill="#d9d9d9" stroke="#ffffff"/>
    <circle cx="296" cy="368" r="22" fill="#d9d9d9" stroke="#ffffff"/>
    <circle cx="296" cy="176" r="22" fill="#ffd76a" stroke="#ffffff"/>
  </g>

  <!-- guidance text -->
  <g fill="#1d4e89" text-anchor="middle" font-size="23">
    <text x="600" y="226">Baue die Pyramide</text>
    <text x="600" y="258">aus 4 Kugeln.</text>
    <text x="600" y="316">Wie viele Stangen</text>
    <text x="600" y="348">brauchst du?</text>
  </g>
  <text x="600" y="406" text-anchor="middle" fill="#1d4e89" font-size="24" font-weight="700">Das ist eure Zahl.</text>

  <!-- footer chip -->
  <circle cx="44" cy="512" r="8" fill="#2b6cb0"/>
  <text x="60" y="518" fill="#7a6a4a" font-size="15">Wohnzimmer · C6</text>
</svg>
