<svg xmlns="http://www.w3.org/2000/svg" viewBox="0 0 760 540" width="190mm" height="135mm" font-family="Georgia, 'Times New Roman', serif">
  <!-- parchment + cut frame -->
  <rect x="0" y="0" width="760" height="540" rx="22" fill="#f6eccf"/>
  <rect x="12" y="12" width="736" height="516" rx="16" fill="none" stroke="#c2a76a" stroke-width="2" stroke-dasharray="7 6"/>

  <!-- header band -->
  <rect x="40" y="30" width="680" height="70" rx="12" fill="#1d4e89"/>
  <text x="400" y="62" text-anchor="middle" fill="#bfe0ff" font-size="16" letter-spacing="3">BLAUES SCHLOSS</text>
  <text x="400" y="86" text-anchor="middle" fill="#fdf2d6" font-size="18" font-style="italic">Welche Zahl kommt als Nächstes?</text>

  <!-- title -->
  <text x="400" y="148" text-anchor="middle" fill="#1d4e89" font-size="34" font-weight="700">Zahlenfolge</text>

  <!-- scroll panel -->
  <rect x="60" y="178" width="640" height="120" rx="18" fill="#fdf6e3" stroke="#c2a76a" stroke-width="3"/>
  <text x="380" y="258" text-anchor="middle" fill="#2a2118" font-size="46" letter-spacing="4" font-weight="700">2&#160;·&#160;4&#160;·&#160;6&#160;·&#160;8&#160;·&#160;10&#160;·&#160;<tspan fill="#2b6cb0" font-weight="700">?</tspan></text>

  <!-- answer tiles -->
  <g>
    <rect x="70" y="338" width="116" height="92" rx="14" fill="#fdf6e3" stroke="#c2a76a" stroke-width="3"/>
    <text x="128" y="398" text-anchor="middle" fill="#1d4e89" font-size="40" font-weight="700">12</text>

    <rect x="206" y="338" width="116" height="92" rx="14" fill="#fdf6e3" stroke="#c2a76a" stroke-width="3"/>
    <text x="264" y="398" text-anchor="middle" fill="#1d4e89" font-size="40" font-weight="700">14</text>

    <rect x="342" y="338" width="116" height="92" rx="14" fill="#fdf6e3" stroke="#c2a76a" stroke-width="3"/>
    <text x="400" y="398" text-anchor="middle" fill="#1d4e89" font-size="40" font-weight="700">16</text>

    <rect x="478" y="338" width="116" height="92" rx="14" fill="#fdf6e3" stroke="#c2a76a" stroke-width="3"/>
    <text x="536" y="398" text-anchor="middle" fill="#1d4e89" font-size="40" font-weight="700">18</text>

    <rect x="614" y="338" width="116" height="92" rx="14" fill="#fdf6e3" stroke="#c2a76a" stroke-width="3"/>
    <text x="672" y="398" text-anchor="middle" fill="#1d4e89" font-size="40" font-weight="700">20</text>
  </g>

  <!-- guidance -->
  <text x="400" y="468" text-anchor="middle" fill="#1d4e89" font-size="22">Lege die nächste Zahl an. Die letzte Ziffer ist eure Zahl!</text>

  <!-- footer chip -->
  <circle cx="44" cy="508" r="8" fill="#2b6cb0"/>
  <text x="60" y="514" fill="#7a6a4a" font-size="16">C5</text>
</svg>
