<svg xmlns="http://www.w3.org/2000/svg" viewBox="0 0 400 300" width="100mm" height="75mm" font-family="Georgia, 'Times New Roman', serif">
  <rect x="0" y="0" width="400" height="300" rx="16" fill="#f6eccf"/>
  <rect x="7" y="7" width="386" height="286" rx="12" fill="none" stroke="#c2a76a" stroke-width="2" stroke-dasharray="7 6"/>

  <rect x="20" y="16" width="360" height="44" rx="10" fill="#8c2b22"/>
  <text x="200" y="45" text-anchor="middle" fill="#fdf2d6" font-size="22" font-weight="700">Aufgabe 4</text>
  <text x="200" y="82" text-anchor="middle" fill="#8c2b22" font-size="14" letter-spacing="2">WELCHE ZAHL FEHLT?</text>

  <!-- number sequence tiles -->
  <g font-size="26" font-weight="700" text-anchor="middle">
    <rect x="60"  y="118" width="48" height="58" rx="8" fill="#fdf6e3" stroke="#b08a3a" stroke-width="2"/>
    <text x="84"  y="156" fill="#2a2118">2</text>
    <rect x="118" y="118" width="48" height="58" rx="8" fill="#fdf6e3" stroke="#b08a3a" stroke-width="2"/>
    <text x="142" y="156" fill="#2a2118">5</text>
    <rect x="176" y="118" width="48" height="58" rx="8" fill="#fdf6e3" stroke="#b08a3a" stroke-width="2"/>
    <text x="200" y="156" fill="#2a2118">8</text>
    <rect x="234" y="118" width="48" height="58" rx="8" fill="#ffffff" stroke="#d6463a" stroke-width="3" stroke-dasharray="5 4"/>
    <text x="258" y="156" fill="#d6463a">?</text>
    <rect x="292" y="118" width="48" height="58" rx="8" fill="#fdf6e3" stroke="#b08a3a" stroke-width="2"/>
    <text x="316" y="156" fill="#2a2118">14</text>
  </g>

  <text x="200" y="210" text-anchor="middle" fill="#2a2118" font-size="13">Die Reihe steigt immer um den gleichen Schritt.</text>
  <text x="200" y="238" text-anchor="middle" fill="#8c2b22" font-size="15" font-weight="700">Ergebnis = die fehlende Zahl</text>

  <circle cx="44" cy="284" r="6" fill="#d6463a"/>
  <text x="56" y="289" fill="#7a6a4a" font-size="12">C1</text>
  <text x="356" y="289" text-anchor="end" font-size="14"><tspan fill="#e0a92e">★ ★</tspan><tspan fill="#d8c9a0"> ★</tspan></text>
</svg>
