<svg xmlns="http://www.w3.org/2000/svg" viewBox="0 0 760 540" width="190mm" height="135mm" font-family="Georgia, 'Times New Roman', serif">
  <defs>
    <radialGradient id="c7-brass" cx="36%" cy="32%" r="78%">
      <stop offset="0" stop-color="#e6c66a"/>
      <stop offset="0.6" stop-color="#b08d2e"/>
      <stop offset="1" stop-color="#7a5f14"/>
    </radialGradient>
    <radialGradient id="c7-steel" cx="36%" cy="32%" r="78%">
      <stop offset="0" stop-color="#eeeeee"/>
      <stop offset="0.6" stop-color="#c9c9c9"/>
      <stop offset="1" stop-color="#8f8f8f"/>
    </radialGradient>
    <!-- one gear: 10 teeth, hub, center hole -->
    <g id="c7-gear">
      <g stroke="#1f5d3a" stroke-width="2">
        <rect x="-5" y="-46" width="10" height="14"/>
        <rect x="-5" y="-46" width="10" height="14" transform="rotate(36)"/>
        <rect x="-5" y="-46" width="10" height="14" transform="rotate(72)"/>
        <rect x="-5" y="-46" width="10" height="14" transform="rotate(108)"/>
        <rect x="-5" y="-46" width="10" height="14" transform="rotate(144)"/>
        <rect x="-5" y="-46" width="10" height="14" transform="rotate(180)"/>
        <rect x="-5" y="-46" width="10" height="14" transform="rotate(216)"/>
        <rect x="-5" y="-46" width="10" height="14" transform="rotate(252)"/>
        <rect x="-5" y="-46" width="10" height="14" transform="rotate(288)"/>
        <rect x="-5" y="-46" width="10" height="14" transform="rotate(324)"/>
      </g>
      <circle cx="0" cy="0" r="34" stroke="#1f5d3a" stroke-width="2.5"/>
      <circle cx="0" cy="0" r="17" fill="none" stroke="#1f5d3a" stroke-width="2"/>
      <circle cx="0" cy="0" r="7" fill="#f6eccf" stroke="#1f5d3a" stroke-width="2"/>
    </g>
  </defs>

  <!-- parchment + cut frame -->
  <rect x="0" y="0" width="760" height="540" rx="20" fill="#f6eccf"/>
  <rect x="12" y="12" width="736" height="516" rx="14" fill="none" stroke="#c2a76a" stroke-width="2" stroke-dasharray="9 7"/>

  <!-- header band -->
  <rect x="40" y="28" width="680" height="70" rx="12" fill="#1f5d3a"/>
  <text x="380" y="62" text-anchor="middle" fill="#bdeccb" font-size="17" letter-spacing="3">GRÜNES SCHLOSS · KINDERZIMMER</text>
  <text x="380" y="86" text-anchor="middle" fill="#fdf2d6" font-size="19" font-style="italic">Aus den beschrifteten Boxen bauen</text>

  <!-- title -->
  <text x="380" y="146" text-anchor="middle" fill="#1f5d3a" font-size="34" font-weight="700">Technic-Maschine</text>

  <!-- row of four interlocking gears -->
  <g transform="translate(0,250)">
    <use href="#c7-gear" x="170" y="0" fill="url(#c7-brass)"/>
    <use href="#c7-gear" x="290" y="0" fill="url(#c7-steel)"/>
    <use href="#c7-gear" x="410" y="0" fill="url(#c7-brass)"/>
    <use href="#c7-gear" x="530" y="0" fill="url(#c7-steel)"/>
  </g>

  <!-- body text -->
  <g fill="#2a2118" font-size="23" text-anchor="middle">
    <text x="380" y="360">Baue die Maschine mit 4 Zahnrädern. Hol die Teile aus der</text>
    <text x="380" y="392">„Zahnrad-Box“ und der „Achsen-Box“.</text>
  </g>
  <text x="380" y="440" text-anchor="middle" fill="#1f5d3a" font-size="23" font-weight="700">Wie viele Zahnräder hast du benutzt? Das ist eure Zahl.</text>

  <!-- footer chip -->
  <circle cx="44" cy="500" r="8" fill="#2e7d4f"/>
  <text x="60" y="506" fill="#7a6a4a" font-size="16">Kinderzimmer · C7</text>
</svg>
