<svg xmlns="http://www.w3.org/2000/svg" viewBox="0 0 760 540" width="190mm" height="135mm" font-family="Georgia, 'Times New Roman', serif">
  <defs>
    <linearGradient id="c9-panel" x1="0" y1="0" x2="1" y2="1">
      <stop offset="0" stop-color="#1a1a1a"/>
      <stop offset="1" stop-color="#333333"/>
    </linearGradient>
  </defs>

  <!-- parchment + cut frame -->
  <rect x="0" y="0" width="760" height="540" rx="20" fill="#f6eccf"/>
  <rect x="12" y="12" width="736" height="516" rx="14" fill="none" stroke="#c2a76a" stroke-width="2" stroke-dasharray="7 6"/>

  <!-- header band -->
  <rect x="40" y="28" width="680" height="70" rx="12" fill="#1f5d3a"/>
  <text x="380" y="62" text-anchor="middle" fill="#bdeccb" font-size="17" letter-spacing="2">GRÜNES SCHLOSS · KINDERZIMMER</text>
  <text x="380" y="85" text-anchor="middle" fill="#fdf2d6" font-size="18" font-style="italic">In Stücke schneiden · mischen · zusammensetzen</text>

  <!-- title -->
  <text x="380" y="142" text-anchor="middle" fill="#1f5d3a" font-size="34" font-weight="700">Schatz-Puzzle</text>

  <!-- puzzle panel -->
  <rect x="232" y="168" width="296" height="222" rx="14" fill="url(#c9-panel)"/>
  <text x="380" y="358" text-anchor="middle" fill="#f1e6c9" font-size="220" font-family="Georgia, 'Times New Roman', serif">8</text>

  <!-- faint white cut-line grid (4 columns × 3 rows) -->
  <g stroke="#ffffff" stroke-width="1.5" opacity="0.25">
    <!-- vertical cut lines -->
    <line x1="306" y1="168" x2="306" y2="390"/>
    <line x1="380" y1="168" x2="380" y2="390"/>
    <line x1="454" y1="168" x2="454" y2="390"/>
    <!-- horizontal cut lines -->
    <line x1="232" y1="242" x2="528" y2="242"/>
    <line x1="232" y1="316" x2="528" y2="316"/>
  </g>

  <!-- guidance text -->
  <g fill="#1f5d3a" font-size="22" text-anchor="middle">
    <text x="380" y="428">Schneide das Bild in ~12 Stücke.</text>
    <text x="380" y="458">Mischt sie und setzt sie wieder zusammen.</text>
    <text x="380" y="488">Welche Zahl erscheint?</text>
  </g>

  <!-- footer chip -->
  <circle cx="44" cy="512" r="9" fill="#2e7d4f"/>
  <text x="62" y="518" fill="#7a6a4a" font-size="16">Kinderzimmer · C9</text>
</svg>
