<svg xmlns="http://www.w3.org/2000/svg" viewBox="0 0 400 300" width="100mm" height="75mm" font-family="Georgia, 'Times New Roman', serif">
  <!-- parchment + cut frame -->
  <rect x="0" y="0" width="400" height="300" rx="16" fill="#f6eccf"/>
  <rect x="7" y="7" width="386" height="286" rx="12" fill="none" stroke="#c2a76a" stroke-width="2" stroke-dasharray="7 6"/>

  <!-- header band -->
  <rect x="20" y="14" width="360" height="46" rx="10" fill="#8a6510"/>
  <text x="200" y="36" text-anchor="middle" fill="#ffe9a8" font-size="13" letter-spacing="2">GOLDENES SCHLOSS · FINALE</text>
  <text x="200" y="53" text-anchor="middle" fill="#fdf2d6" font-size="14" font-style="italic">So bekommt ihr eure Zahl</text>

  <!-- title -->
  <text x="200" y="82" text-anchor="middle" fill="#8a6510" font-size="22" font-weight="700">Bibot auf Schatzsuche</text>

  <!-- steps -->
  <g fill="#2a2118" font-size="12.5">
    <text x="34" y="103"><tspan fill="#8a6510" font-weight="700">1.</tspan>  Jeder nimmt eine <tspan font-weight="700">Bibot-Karte</tspan> — Bibot blickt nach vorn (Nase).</text>
    <text x="34" y="122"><tspan fill="#8a6510" font-weight="700">2.</tspan>  Führt die <tspan font-weight="700">Befehle</tspan> aus — wo bleibt Bibot stehen? (z.B. C3)</text>
    <text x="34" y="141"><tspan fill="#8a6510" font-weight="700">3.</tspan>  Sucht das Feld in <tspan font-weight="700">eurer Tabelle</tspan> — daneben steht die Zahl.</text>
    <text x="34" y="160"><tspan fill="#8a6510" font-weight="700">4.</tspan>  Addiert eure <tspan font-weight="700">5 Zahlen</tspan>; sucht die Summe in der Tabelle.</text>
  </g>

  <!-- command legend -->
  <g font-size="11" fill="#2a2118">
    <text x="34" y="182" font-weight="700" fill="#8a6510">Befehle:</text>
    <text x="92" y="183" font-size="14" fill="#2b8a8a" text-anchor="middle">&#8593;</text>
    <text x="104" y="182">vorwärts</text>
    <g transform="translate(178,178) scale(0.9)" fill="none" stroke="#2b8a8a" stroke-width="2.2" stroke-linecap="round"><path d="M3.5,-6.06 A7,7 0 1 1 -3.5,-6.06"/><polygon points="-0.04,-8.06 -2.2,-3.81 -4.8,-8.31" fill="#2b8a8a" stroke="none"/></g>
    <text x="190" y="182">rechts drehen</text>
    <g transform="translate(290,178) scale(-0.9,0.9)" fill="none" stroke="#2b8a8a" stroke-width="2.2" stroke-linecap="round"><path d="M3.5,-6.06 A7,7 0 1 1 -3.5,-6.06"/><polygon points="-0.04,-8.06 -2.2,-3.81 -4.8,-8.31" fill="#2b8a8a" stroke="none"/></g>
    <text x="302" y="182">links drehen</text>
  </g>

  <!-- treasure mapping table: Summe -> Zahl -->
  <text x="200" y="206" text-anchor="middle" fill="#8a6510" font-size="13" font-weight="700" letter-spacing="1">SCHATZ-TABELLE</text>
  <g font-size="12" fill="#7a6a4a" text-anchor="end">
    <text x="40" y="230">Summe</text>
    <text x="40" y="258">Zahl</text>
  </g>
  <g text-anchor="middle">
    <!-- column 1: 22 -> 7 -->
    <rect x="52" y="216" width="60" height="50" rx="8" fill="#fdf6e3" stroke="#c2a76a" stroke-width="2"/>
    <line x1="52" y1="240" x2="112" y2="240" stroke="#c2a76a" stroke-width="1"/>
    <text x="82" y="234" fill="#2a2118" font-size="16" font-weight="700">22</text>
    <text x="82" y="259" fill="#8a6510" font-size="16" font-weight="700">7</text>
    <!-- column 2: 23 -> 4 -->
    <rect x="118" y="216" width="60" height="50" rx="8" fill="#fdf6e3" stroke="#c2a76a" stroke-width="2"/>
    <line x1="118" y1="240" x2="178" y2="240" stroke="#c2a76a" stroke-width="1"/>
    <text x="148" y="234" fill="#2a2118" font-size="16" font-weight="700">23</text>
    <text x="148" y="259" fill="#8a6510" font-size="16" font-weight="700">4</text>
    <!-- column 3: 24 -> 1 (the answer) -->
    <rect x="184" y="216" width="60" height="50" rx="8" fill="#fdf6e3" stroke="#c2a76a" stroke-width="2"/>
    <line x1="184" y1="240" x2="244" y2="240" stroke="#c2a76a" stroke-width="1"/>
    <text x="214" y="234" fill="#2a2118" font-size="16" font-weight="700">24</text>
    <text x="214" y="259" fill="#8a6510" font-size="16" font-weight="700">1</text>
    <!-- column 4: 25 -> 9 -->
    <rect x="250" y="216" width="60" height="50" rx="8" fill="#fdf6e3" stroke="#c2a76a" stroke-width="2"/>
    <line x1="250" y1="240" x2="310" y2="240" stroke="#c2a76a" stroke-width="1"/>
    <text x="280" y="234" fill="#2a2118" font-size="16" font-weight="700">25</text>
    <text x="280" y="259" fill="#8a6510" font-size="16" font-weight="700">9</text>
    <!-- column 5: 26 -> 3 -->
    <rect x="316" y="216" width="60" height="50" rx="8" fill="#fdf6e3" stroke="#c2a76a" stroke-width="2"/>
    <line x1="316" y1="240" x2="376" y2="240" stroke="#c2a76a" stroke-width="1"/>
    <text x="346" y="234" fill="#2a2118" font-size="16" font-weight="700">26</text>
    <text x="346" y="259" fill="#8a6510" font-size="16" font-weight="700">3</text>
  </g>

  <!-- footer -->
  <text x="200" y="285" text-anchor="middle" fill="#7a6a4a" font-size="12">C12 · 5 Bibot-Karten · Bibot dreht sich auf der Stelle</text>
</svg>
